# xmcd
#
# Track frame offsets: 
#        183
#        13443
#        27878
#        41898
#        55928
#        68438
#        79525
#        93480
#        105793
#        119433
#        130895
#        143378
#        156385
#        170528
#        186803
#        203190
#        215370
#        229813
#
# Disc length: 3259 seconds
#
# Revision: 2
# Processed by: cddbd v1.5.2PL0 Copyright (c) Steve Scherf et al.
# Submitted via: ExactAudioCopy v1.0b6
#
DISCID=f10cb912
DTITLE=Charlie Rich - The Country Store Collection
DYEAR=1900
DGENRE=
TTITLE0=Behind Closed Doors (1973)
TTITLE1=Almost Persuaded (1974)
TTITLE2=A Sundy Kind Of Woman (1973)
TTITLE3=We Love Each Other (1973)
TTITLE4=A Very Special Love Song (1974)
TTITLE5=I Love My Friend (1974)
TTITLE6=Amazing Grace (1976)
TTITLE7=The Most Beautiful Girl (1973)
TTITLE8=Everytime You Touch Me (I Get High) (1975)
TTITLE9=Daddy Don't You Walk So Fast (1972)
TTITLE10=She (1975)
TTITLE11=I Take It On Home (1972)
TTITLE12=Sometimes, I Feel Like A Motherless Child
TTITLE13=My Ellusive Dreams (1975)
TTITLE14=Life Has Its Little Ups And Downs (1972)
TTITLE15=Rollin' With The Flow (1977)
TTITLE16=On My Knees (1981)
TTITLE17=A Woman Left Lonely (1972)
EXTD=
EXTT0=
EXTT1=
EXTT2=
EXTT3=
EXTT4=
EXTT5=
EXTT6=
EXTT7=
EXTT8=
EXTT9=
EXTT10=
EXTT11=
EXTT12=
EXTT13=
EXTT14=
EXTT15=
EXTT16=
EXTT17=
PLAYORDER=
